<?xml version="1.0" standalone="no"?>
<!DOCTYPE svg PUBLIC "-//W3C//DTD SVG 20010904//EN"
 "http://www.w3.org/TR/2001/REC-SVG-20010904/DTD/svg10.dtd">
<svg version="1.0" xmlns="http://www.w3.org/2000/svg"
 width="700.000000pt" height="700.000000pt" viewBox="0 0 700.000000 700.000000"
 preserveAspectRatio="xMidYMid meet">
<metadata>
Created by potrace 1.11, written by Peter Selinger 2001-2013
</metadata>
<g transform="translate(0.000000,700.000000) scale(0.100000,-0.100000)"
fill="#000000" stroke="none">
<path d="M2754 6722 l-62 -3 5 -2097 c2 -1153 5 -2473 7 -2932 l3 -835 -285
-286 c-156 -158 -282 -291 -279 -295 6 -10 639 -8 725 2 l52 6 0 36 c1 80 -1
1204 -5 2662 -2 844 -4 2031 -4 2637 l-1 1101 -47 4 c-27 1 -76 2 -109 0z"/>
<path d="M4107 6722 c-16 -3 -17 -69 -18 -1035 0 -568 -2 -1732 -4 -2587 -4
-1462 -6 -2699 -5 -2781 l0 -37 58 -6 c81 -9 702 -12 715 -4 8 5 -94 113 -273
293 l-285 285 3 1457 c2 802 5 2123 7 2936 l3 1477 -31 1 c-122 3 -155 4 -170
1z"/>
<path d="M740 5720 l0 -1000 -284 -284 c-156 -155 -281 -287 -278 -292 8 -11
639 -8 722 3 l55 8 0 1280 0 1280 -107 3 -108 3 0 -1001z"/>
<path d="M1617 6712 c-2 -4 -3 -781 -2 -1727 l1 -1720 -284 -286 c-156 -158
-282 -291 -279 -296 6 -9 639 -7 725 3 l52 6 0 2013 0 2013 -105 0 c-58 0
-106 -3 -108 -6z"/>
<path d="M5170 4704 l0 -2012 53 -6 c86 -10 718 -12 724 -2 3 4 -122 136 -278
292 l-284 284 -1 1718 c-1 944 -2 1722 -3 1729 -1 8 -31 12 -106 11 l-105 -1
0 -2013z"/>
<path d="M6045 5438 l0 -1283 55 -8 c30 -4 205 -8 388 -10 265 -2 332 1 332
11 0 7 -126 138 -280 292 l-280 280 0 1000 0 1000 -108 0 -107 0 0 -1282z"/>
</g>
</svg>
