<svg xmlns:xlink="http://www.w3.org/1999/xlink" version="1.1" class="highcharts-root" style="font-family:&quot;akko w01 regular&quot;, &quot;calibri light&quot;, sans-serif;font-size:12px;color:#000;fill:#000;" xmlns="http://www.w3.org/2000/svg" width="600" height="450" viewBox="0 0 600 450"><desc>Created with Highcharts 5.0.14</desc><defs><clipPath id="highcharts-m4yzek0-23"><rect x="0" y="0" width="553" height="253" fill="none"></rect></clipPath></defs><rect fill="#ffffff" class="highcharts-background" x="0" y="0" width="600" height="450" rx="0" ry="0"></rect><rect fill="none" class="highcharts-plot-background" x="37" y="62" width="553" height="253"></rect><text x="11" y="44"><tspan>bn kWh</tspan></text><path fill="#efefef" d="M 37 315 v 80 a 6 6 0 0 0 6 6 h 541 a 6 6 0 0 0 6 -6 v -80 z"></path><g class="highcharts-pane-group"></g><g class="highcharts-grid highcharts-xaxis-grid "><path fill="none" class="highcharts-grid-line" d="M 67.5 62 L 67.5 315" opacity="1"></path><path fill="none" class="highcharts-grid-line" d="M 128.5 62 L 128.5 315" opacity="1"></path><path fill="none" class="highcharts-grid-line" d="M 190.5 62 L 190.5 315" opacity="1"></path><path fill="none" class="highcharts-grid-line" d="M 251.5 62 L 251.5 315" opacity="1"></path><path fill="none" class="highcharts-grid-line" d="M 313.5 62 L 313.5 315" opacity="1"></path><path fill="none" class="highcharts-grid-line" d="M 374.5 62 L 374.5 315" opacity="1"></path><path fill="none" class="highcharts-grid-line" d="M 435.5 62 L 435.5 315" opacity="1"></path><path fill="none" class="highcharts-grid-line" d="M 497.5 62 L 497.5 315" opacity="1"></path><path fill="none" class="highcharts-grid-line" d="M 558.5 62 L 558.5 315" opacity="1"></path></g><g class="highcharts-grid highcharts-yaxis-grid "><path fill="none" stroke="#666666" stroke-width="0.25" class="highcharts-grid-line" d="M 37 315.125 L 590 315.125" opacity="1"></path><path fill="none" stroke="#666666" stroke-width="0.25" class="highcharts-grid-line" d="M 37 252.125 L 590 252.125" opacity="1"></path><path fill="none" stroke="#666666" stroke-width="0.25" class="highcharts-grid-line" d="M 37 189.125 L 590 189.125" opacity="1"></path><path fill="none" stroke="#666666" stroke-width="0.25" class="highcharts-grid-line" d="M 37 125.125 L 590 125.125" opacity="1"></path><path fill="none" stroke="#666666" stroke-width="0.25" class="highcharts-grid-line" d="M 37 61.875 L 590 61.875" opacity="1"></path></g><rect fill="none" class="highcharts-plot-border" x="37" y="62" width="553" height="253"></rect><g class="highcharts-logo" transform="translate(48,359) scale(0.19230769230769232)"><path fill="#929292" d="M 41.3 34.1 V 42 H 23.8 h -5.5 v 5.5 v 7.9 v 5.5 h 5.5 h 17.5 v 7.9 H 10.4 V 34.1 H 41.3 M 46.8 28.6 H 9.9 c -2.8 0 -5 2.2 -5 5 v 40.6 h 41.9 V 55.3 h -23 v -7.9 h 23 V 28.6 L 46.9 28.6 z"></path><path fill="#929292" d="M 67.3 11.4 v 17.2 v 5.5 h 5.5 h 21.3 v 34.6 H 59.4 V 11.4 H 67.3 M 67.2 60.8 h 5.5 h 7.9 h 5.5 v -5.5 v -7.9 v -5.5 h -5.5 h -7.9 h -5.5 v 5.5 v 7.9 V 60.8 M 67.8 5.9 H 53.9 v 68.3 h 45.7 V 33.6 c 0 -2.8 -2.2 -5 -5 -5 H 72.8 V 11.2 C 72.8 8.4 70.5 5.9 67.8 5.9 L 67.8 5.9 z M 72.7 55.3 v -7.9 h 7.9 v 7.9 H 72.7 L 72.7 55.3 z"></path><path fill="#929292" d="M 94 86.8 v 8 H 23.8 h -5.5 v 5.5 v 7 v 5.5 h 5.5 H 94 v 33.9 H 10.4 v -7.9 h 70.3 h 5.5 v -5.5 v -7.1 v -5.5 h -5.5 H 10.4 V 86.8 H 94 M 99.5 81.3 H 4.9 v 44.9 h 75.8 v 7.1 H 4.9 v 13.9 c 0 2.8 2.2 5 5 5 h 84.6 c 2.8 0 5 -2.2 5 -5 v -39.9 H 23.8 v -7 h 75.7 V 81.3 L 99.5 81.3 z"></path></g><g class="highcharts-axis highcharts-xaxis "><path fill="none" class="highcharts-tick" stroke="#C6C6C6" stroke-width="1" d="M 67.5 315 L 67.5 324" opacity="1"></path><path fill="none" class="highcharts-tick" stroke="#C6C6C6" stroke-width="1" d="M 128.5 315 L 128.5 324" opacity="1"></path><path fill="none" class="highcharts-tick" stroke="#C6C6C6" stroke-width="1" d="M 190.5 315 L 190.5 324" opacity="1"></path><path fill="none" class="highcharts-tick" stroke="#C6C6C6" stroke-width="1" d="M 251.5 315 L 251.5 324" opacity="1"></path><path fill="none" class="highcharts-tick" stroke="#C6C6C6" stroke-width="1" d="M 313.5 315 L 313.5 324" opacity="1"></path><path fill="none" class="highcharts-tick" stroke="#C6C6C6" stroke-width="1" d="M 374.5 315 L 374.5 324" opacity="1"></path><path fill="none" class="highcharts-tick" stroke="#C6C6C6" stroke-width="1" d="M 435.5 315 L 435.5 324" opacity="1"></path><path fill="none" class="highcharts-tick" stroke="#C6C6C6" stroke-width="1" d="M 497.5 315 L 497.5 324" opacity="1"></path><path fill="none" class="highcharts-tick" stroke="#C6C6C6" stroke-width="1" d="M 558.5 315 L 558.5 324" opacity="1"></path><path fill="none" class="highcharts-axis-line" stroke="#666666" stroke-width="1" d="M 37 315.5 L 590 315.5"></path></g><g class="highcharts-axis highcharts-yaxis "><path fill="none" class="highcharts-axis-line" d="M 37 62 L 37 315"></path></g><g class="highcharts-series-group"><g class="highcharts-series highcharts-series-0 highcharts-area-series highcharts-color-0 " transform="translate(37,62) scale(1 1)" clip-path="url(#highcharts-m4yzek0-23)"><path fill="rgb(0,161,205)" fill-opacity="0.75" d="M 30.722222222222 163.185 L 92.166666666667 163.185 L 153.61111111111 161.92000000000002 L 215.05555555556 177.1 L 276.5 188.485 L 337.94444444444 189.75 L 399.38888888889 189.75 L 460.83333333333 193.545 L 522.27777777778 192.28 L 522.27777777778 253 L 460.83333333333 253 L 399.38888888889 253 L 337.94444444444 253 L 276.5 253 L 215.05555555556 253 L 153.61111111111 253 L 92.166666666667 253 L 30.722222222222 253" class="highcharts-area"></path><path fill="none" d="M 30.722222222222 163.185 L 92.166666666667 163.185 L 153.61111111111 161.92000000000002 L 215.05555555556 177.1 L 276.5 188.485 L 337.94444444444 189.75 L 399.38888888889 189.75 L 460.83333333333 193.545 L 522.27777777778 192.28" class="highcharts-graph" stroke="#ffffff" stroke-width="2" stroke-linejoin="round" stroke-linecap="round"></path></g><g class="highcharts-markers highcharts-series-0 highcharts-area-series highcharts-color-0 " transform="translate(37,62) scale(1 1)" clip-path="none"></g><g class="highcharts-series highcharts-series-1 highcharts-area-series highcharts-color-1 " transform="translate(37,62) scale(1 1)" clip-path="url(#highcharts-m4yzek0-23)"><path fill="rgb(0,88,184)" fill-opacity="0.75" d="M 30.722222222222 161.92000000000002 L 92.166666666667 161.92000000000002 L 153.61111111111 160.655 L 215.05555555556 175.835 L 276.5 187.22000000000003 L 337.94444444444 188.485 L 399.38888888889 188.485 L 460.83333333333 192.28 L 522.27777777778 191.01500000000001 L 522.27777777778 192.28 L 460.83333333333 193.545 L 399.38888888889 189.75 L 337.94444444444 189.75 L 276.5 188.485 L 215.05555555556 177.1 L 153.61111111111 161.92000000000002 L 92.166666666667 163.185 L 30.722222222222 163.185" class="highcharts-area"></path><path fill="none" d="M 30.722222222222 161.92000000000002 L 92.166666666667 161.92000000000002 L 153.61111111111 160.655 L 215.05555555556 175.835 L 276.5 187.22000000000003 L 337.94444444444 188.485 L 399.38888888889 188.485 L 460.83333333333 192.28 L 522.27777777778 191.01500000000001" class="highcharts-graph" stroke="#ffffff" stroke-width="2" stroke-linejoin="round" stroke-linecap="round"></path></g><g class="highcharts-markers highcharts-series-1 highcharts-area-series highcharts-color-1 " transform="translate(37,62) scale(1 1)" clip-path="none"></g><g class="highcharts-series highcharts-series-2 highcharts-area-series highcharts-color-2 " transform="translate(37,62) scale(1 1)" clip-path="url(#highcharts-m4yzek0-23)"><path fill="rgb(175,203,5)" fill-opacity="0.75" d="M 30.722222222222 104.995 L 92.166666666667 102.465 L 153.61111111111 98.67000000000002 L 215.05555555556 107.525 L 276.5 113.85 L 337.94444444444 101.19999999999999 L 399.38888888889 82.225 L 460.83333333333 70.84 L 522.27777777778 65.77999999999997 L 522.27777777778 191.01500000000001 L 460.83333333333 192.28 L 399.38888888889 188.485 L 337.94444444444 188.485 L 276.5 187.22000000000003 L 215.05555555556 175.835 L 153.61111111111 160.655 L 92.166666666667 161.92000000000002 L 30.722222222222 161.92000000000002" class="highcharts-area"></path><path fill="none" d="M 30.722222222222 104.995 L 92.166666666667 102.465 L 153.61111111111 98.67000000000002 L 215.05555555556 107.525 L 276.5 113.85 L 337.94444444444 101.19999999999999 L 399.38888888889 82.225 L 460.83333333333 70.84 L 522.27777777778 65.77999999999997" class="highcharts-graph" stroke="#ffffff" stroke-width="2" stroke-linejoin="round" stroke-linecap="round"></path></g><g class="highcharts-markers highcharts-series-2 highcharts-area-series highcharts-color-2 " transform="translate(37,62) scale(1 1)" clip-path="none"></g><g class="highcharts-series highcharts-series-3 highcharts-area-series highcharts-color-3 " transform="translate(37,62) scale(1 1)" clip-path="url(#highcharts-m4yzek0-23)"><path fill="rgb(83,163,29)" fill-opacity="0.75" d="M 30.722222222222 103.73000000000002 L 92.166666666667 101.20000000000002 L 153.61111111111 96.14000000000001 L 215.05555555556 102.465 L 276.5 104.995 L 337.94444444444 87.285 L 399.38888888889 61.984999999999985 L 460.83333333333 43.01000000000002 L 522.27777777778 25.299999999999983 L 522.27777777778 65.77999999999997 L 460.83333333333 70.84 L 399.38888888889 82.225 L 337.94444444444 101.19999999999999 L 276.5 113.85 L 215.05555555556 107.525 L 153.61111111111 98.67000000000002 L 92.166666666667 102.465 L 30.722222222222 104.995" class="highcharts-area"></path><path fill="none" d="M 30.722222222222 103.73000000000002 L 92.166666666667 101.20000000000002 L 153.61111111111 96.14000000000001 L 215.05555555556 102.465 L 276.5 104.995 L 337.94444444444 87.285 L 399.38888888889 61.984999999999985 L 460.83333333333 43.01000000000002 L 522.27777777778 25.299999999999983" class="highcharts-graph" stroke="#ffffff" stroke-width="2" stroke-linejoin="round" stroke-linecap="round"></path></g><g class="highcharts-markers highcharts-series-3 highcharts-area-series highcharts-color-3 " transform="translate(37,62) scale(1 1)" clip-path="none"></g></g><text x="10" text-anchor="start" class="highcharts-title" style="color:#000;font-size:17px;font-family:&quot;soho w01 medium&quot;, &quot;cambria&quot;, sans-serif;fill:#000;" y="23"><tspan>Renewable electricity production in the Netherlands</tspan></text><g class="highcharts-legend" transform="translate(37,425)"><rect fill="none" class="highcharts-legend-box" rx="0" ry="0" x="0" y="0" width="372" height="13" visibility="visible"></rect><g><g><g class="highcharts-legend-item highcharts-area-series highcharts-color-0 highcharts-series-0" transform="translate(0,-5)"><text x="35" y="15" style="color:#000000;font-size:12px;font-weight:normal;cursor:pointer;fill:#000000;" text-anchor="start"><tspan>Biomass</tspan></text><rect x="0" y="6" width="25" height="10" fill="#00a1cd" class="highcharts-point"></rect></g><g class="highcharts-legend-item highcharts-area-series highcharts-color-1 highcharts-series-1" transform="translate(103.59375,-5)"><text x="35" y="15" style="color:#000000;font-size:12px;font-weight:normal;cursor:pointer;fill:#000000;" text-anchor="start"><tspan>Hydropower</tspan></text><rect x="0" y="6" width="25" height="10" fill="#0058b8" class="highcharts-point"></rect></g><g class="highcharts-legend-item highcharts-area-series highcharts-color-2 highcharts-series-2" transform="translate(230.1875,-5)"><text x="35" y="15" style="color:#000000;font-size:12px;font-weight:normal;cursor:pointer;fill:#000000;" text-anchor="start"><tspan>Wind</tspan></text><rect x="0" y="6" width="25" height="10" fill="#afcb05" class="highcharts-point"></rect></g><g class="highcharts-legend-item highcharts-area-series highcharts-color-3 highcharts-series-3" transform="translate(317.40625,-5)"><text x="35" y="15" style="color:#000000;font-size:12px;font-weight:normal;cursor:pointer;fill:#000000;" text-anchor="start"><tspan>Sun</tspan></text><rect x="0" y="6" width="25" height="10" fill="#53a31d" class="highcharts-point"></rect></g></g></g></g><g class="highcharts-axis-labels highcharts-xaxis-labels "><text x="67.72222222222223" style="color:#000000;cursor:default;font-size:11px;fill:#000000;" text-anchor="middle" transform="translate(0,0)" y="345" opacity="1"><tspan>2010</tspan></text><text x="129.16666666666666" style="color:#000000;cursor:default;font-size:11px;fill:#000000;" text-anchor="middle" transform="translate(0,0)" y="345" opacity="1"><tspan>2011</tspan></text><text x="190.61111111111111" style="color:#000000;cursor:default;font-size:11px;fill:#000000;" text-anchor="middle" transform="translate(0,0)" y="345" opacity="1"><tspan>2012</tspan></text><text x="252.05555555555554" style="color:#000000;cursor:default;font-size:11px;fill:#000000;" text-anchor="middle" transform="translate(0,0)" y="345" opacity="1"><tspan>2013</tspan></text><text x="313.5" style="color:#000000;cursor:default;font-size:11px;fill:#000000;" text-anchor="middle" transform="translate(0,0)" y="345" opacity="1"><tspan>2014</tspan></text><text x="374.94444444444446" style="color:#000000;cursor:default;font-size:11px;fill:#000000;" text-anchor="middle" transform="translate(0,0)" y="345" opacity="1"><tspan>2015</tspan></text><text x="436.38888888888886" style="color:#000000;cursor:default;font-size:11px;fill:#000000;" text-anchor="middle" transform="translate(0,0)" y="345" opacity="1"><tspan>2016</tspan></text><text x="497.8333333333333" style="color:#000000;cursor:default;font-size:11px;fill:#000000;" text-anchor="middle" transform="translate(0,0)" y="345" opacity="1"><tspan>2017</tspan></text><text x="559.2777777777777" style="color:#000000;cursor:default;font-size:11px;fill:#000000;" text-anchor="middle" transform="translate(0,0)" y="345" opacity="1"><tspan>2018</tspan></text></g><g class="highcharts-axis-labels highcharts-yaxis-labels "><text x="22" style="color:#000000;cursor:default;font-size:11px;fill:#000000;" text-anchor="end" transform="translate(0,0)" y="321" opacity="1"><tspan>0</tspan></text><text x="22" style="color:#000000;cursor:default;font-size:11px;fill:#000000;" text-anchor="end" transform="translate(0,0)" y="257" opacity="1"><tspan>5</tspan></text><text x="22" style="color:#000000;cursor:default;font-size:11px;fill:#000000;" text-anchor="end" transform="translate(0,0)" y="194" opacity="1"><tspan>10</tspan></text><text x="22" style="color:#000000;cursor:default;font-size:11px;fill:#000000;" text-anchor="end" transform="translate(0,0)" y="131" opacity="1"><tspan>15</tspan></text><text x="22" style="color:#000000;cursor:default;font-size:11px;fill:#000000;" text-anchor="end" transform="translate(0,0)" y="68" opacity="1"><tspan>20</tspan></text></g><g class="highcharts-plot-lines-8"><path fill="none" stroke="#666666" stroke-width="2" d="M 37 315 L 590 315" visibility="visible"></path></g></svg>